<svg xmlns="http://www.w3.org/2000/svg" id="katman_1" version="1.1" viewBox="0 0 552.8 456.8"><defs><style>.st0{fill:#d22537}.st1{fill:#3d686d}.st2{fill:#89b7bb}.st3{fill:#fc2c5c}.st4{fill:#cf0e54}.st5{fill:#eef9f3}.st7{fill:#f77348}.st8{fill:#d94334}.st9{fill:#930932}.st10{fill:#fb9543}</style></defs><path d="M354.9 29.6c0-1-.2-1.6-1-1.7-.3 0-.6.2-.7.5-.8 2.1-1.7 4-2.9 5.9-.6 1-1.2 2-1.6 3.1-.6 1.4-1.1 2.4-1.5 3.1-1.3 2.2-2.5 4.5-4 6.5-2.6 3.3-4.8 6.7-6.8 10.1-2 3.5-4.1 6.9-6.3 10.2-2.1 3.3-4.3 6.8-6.3 10.7 0 .1-.2.2-.3.3-.2 0-.4 0-.5-.2 0 0 0-.1-.2-.1-.7.1-1.5 0-2.3-.7-1.2-.8-1.8-1.3-1.9-1.3-3.2-1.6-6.6-2.2-10.1-2.1 3.2-6.2 6.6-12.3 10.1-18.4 2.9-5 5.7-10.1 8.5-15.1 7.5-13.6 15.7-26.6 25.5-38.8.2-.3.5-.3 1-.1.3 0 .5.3.5.6 2 9.2 2.4 18.4 1 27.7ZM527 56c-.3-.6-.5-.9-.6-1-.4-.5-1.1-.5-1.6-.1-6.9 5.6-14 11-21.5 16.2-3.7 2.6-7.8 4.4-11.4 7.2-6.1 4.7-12.4 8.7-18.7 12.8-2.2 1.5-6.1 3.8-11.6 7.1-3.4 2-7.4 4.5-12.1 7.5-11.6 7.4-26 16-43.2 25.9l-30.4 17.8c-1.1-1.3-2.4-2.3-3.9-3.1-.2 0-.3 0-.5.2-.2.3-.2.3 0 0v-.4l-3-1.2c-.7-.3-.7-.5 0-.6h.4c.5 0 .6-.4.6-.9 0-.2-.1-.4-.4-.6-2.3-1.4-4.6-2.4-6.9-3-.3 0-.5-.3-.6-.6-.2-.8-.7-1.3-1.6-1.5-.5-.1-.7 0-.8.5v.2c0 .1.2.2.3.3-.1 0-.2 0-.2.2 0 .1 0 .1-.2 0-.4-.2-.9-.4-1.5-.6 10.1-7.3 16.6-11.9 19.4-13.8 7.1-4.8 14.1-9.5 20.9-14.1 18.3-12.4 36.4-24.7 54.3-36.7 5.5-3.7 10.9-7.5 16.3-11.4 16.2-11.8 30.1-21.5 41.8-29.2 7.4-4.9 16.7-10.2 28-16 3.9-2 7.8-3.8 11.9-5.4.3-.1.5 0 .8 0 .3.2.5.5.4.9-2 6.6-4.8 13.1-8.5 19.5-4.5 7.7-9.7 16.2-15.9 23.7Z" class="st10"/><path d="M354.9 29.6c-.9 8.5-3.4 16.4-7.3 23.9-1.1 2-3.6 6.1-7.6 12.3 0 .1-.1.3 0 .5.1.3.3.4.5.1 2-2 3.8-3.6 5.5-4.8 4-2.6 7.7-5.2 11.2-7.6.3-.2.8-.1 1.1.2 0 .1.1.3.1.5-.4 4.3-1.1 8.4-2.2 12.3-3.5 12.8-10.1 23.8-19.6 33-.2-.8-.1-1.3.4-1.4.1-.7 0-1.4-.2-2v-.7c0-.3.2-.5.5-.6.3-.2.5-.4.6-.7.3-.9.9-1.9 1.9-2.9 1-1.1 1.8-2.4 2.3-3.9.5-1.5 1-2.9 1.5-4 .7-1.5 1.1-2.8 1.3-4.1.5-2.7-.2-3-2-.9-.7.8-1.2 2.1-1.9 2.9-5.2 6.2-10.3 12.4-15.3 18.6-3.7 4.6-8 8.9-11.8 13.4-8.7 10.2-18 20.4-28 30.6-.4.5-.5.4-.3-.2.7-1.6 1.5-3.1 2.5-4.7.8-1.4 1.4-2.9 1.7-4.5.3-1.6.9-3 1.7-4.3 1.2-1.7 2.2-3.7 3.2-5.8 3.8-8.1 11.1-17.4 17.5-25.4.4-.5.6-1.1.5-1.8v-1.7c-.2-.7-.4-.8-.9-.2-2.1 2.6-4 5-5.7 7.4-4.1 5.8-8.2 11.7-12.4 17.6-.8 1.2-1.8 2.1-3 2.6-3.1 1.6-5.5 3.4-7.2 5.4-1.3 1.5-2.6 2.8-4.2 3.9-.7.5-1.4.6-2.2.3-.2-.1-.5 0-.7 0-.5.3-.7.2-.7-.4 0-.5 0-1-.3-1.4l32.7-57.2c3.5-.2 6.9.5 10.1 2.1 0 0 .7.5 1.9 1.3.8.6 1.6.8 2.3.7 0 0 .2 0 .2.1 0 .2.3.3.5.2.1 0 .3-.2.3-.3 2.1-3.8 4.2-7.4 6.3-10.7 2.2-3.3 4.3-6.7 6.3-10.2 2-3.4 4.2-6.7 6.8-10.1 1.5-2 2.8-4.3 4-6.5.4-.7.9-1.7 1.5-3.1.5-1.1 1-2.1 1.6-3.1 1.2-1.9 2.1-3.9 2.9-5.9.1-.3.4-.5.7-.5.8 0 1.1.6 1 1.7Z" class="st8"/><path d="M512.8 29.7c.4-.2.4-.1 0 .1-.7.6-1.5 1.2-2.4 1.7-5.5 3.4-11.3 7.1-17.5 11.2-5.7 3.8-11.3 7.4-16.7 10.9-13.1 8.4-25.9 17.2-38.5 26.4h-.2l-.2-.2c-.1-.1-.1-.4 0-.5C453.7 67.1 466.7 58 476.1 52c7.2-4.6 14.3-9.2 21.3-13.8 4.9-3.3 10-6 15.2-8.4Z" class="st10"/><path d="M269.3 141.7c-3.6 5.6-5.8 9.5-6.5 11.7-.6 1.7-.5 4.1.1 7.2h.1v.1c1 3.6 1.5 7.5 1.6 11.8-1.7 1.7-2.2 2.5-1.5 2.5 1.3-.2 2.4-.2 3.4 0h1c1.2-.3 2.4-.5 3.7-.7 1.2-.1 2.5-.6 3.9-1.5 1.9-1.1 3.9-1.8 6.1-2.2.3 0 .6-.2.8-.4.7-.7 1.4-1.1 2-1.3 1.2-.4 2.1-.7 2.6-1 3.8-2.2 7.6-4.5 11.4-7.1 6.9-4.6 14.4-8.8 21.4-13.5 5.8-3.9 11.5-7.8 17.2-11.8 2.3-1.8 4.6-3.5 7.2-5.1 3.6-2.3 6-3.9 7.3-4.8 18.5-13.1 38-24.4 56.6-36.4 9.7-6.3 19.3-12.1 29-17.8 1.4-.8 3.1-1.6 4.9-2.3h.2v.2c-1.4.9-2.8 1.8-4 2.8-30 24.1-60.3 46-94.2 70.2-5 3.6-10.3 7-15.3 10.6-4.5 3.3-11.1 8.1-19.7 14.3-13.8 10-31.6 23.1-53.4 39.4-5.3 3.9-11.9 8.3-20 13.1-7.1 4.3-15.6 7.4-25.5 9.5-1.5-.3-3.2-.1-5 .7l.4-.8c.1-.3.4-.5.7-.6 3.3-1.3 6.2-3.2 9.3-4.7 4.6-2.1 8.7-5.9 13-8.6 4-2.6 8.1-5.3 12.2-8.1 1-.7.9-1.1-.3-1.1l-11.7-.4c-6.9-.7-13.5-2.1-19.9-4.2-9.8-2.8-18-6.5-24.5-11.2-7-5.1-13.7-12.1-20.2-20.9-.1-.3-.1-.6 0-.8.1-.3.5-.4.8-.3 0 0 .1 0 .2.2 3.1 3.8 6.5 7.1 10.2 9.8 4.2 3.3 9 6.5 14.4 9.7 6.2 3.8 12.8 6.1 19.6 7 .5 0 .6-.1.4-.6-1.7-2.8-3.4-5.7-5.2-8.6-1.4-2.3-2.9-5.2-4.7-8.9-1.5-3.2-3.2-6.4-5-9.4-2.5-6.5-6.4-11.9-11.8-16-2.8-2.1-5.7-3.1-8.3-5.3-.3-.3-.4-.2-.4.2 1 5.8-1.4 9.2-7.3 10.3-3.8.7-6.6-.3-8.5-2.8-2.1-2.7-3.9-4.6-5.6-5.6.5 1.3-.3 1.9-2.4 1.7-.5 0-.8.2-1.1.7-.2.3-.1.5.1.7.4.3.4.8 0 1.5-7.4-5.1-15.8-6.3-24.4-6.3-.5 0-.6.2-.2.5.7.6 1.6 1.1 2.6 1.3l.2.5c.2.5.4.9.8 1.2 4.9 4 9.1 9.9 12.7 17.6 4.5 9.8 7.3 20.4 8.2 31.8.5 5.5 1 11.3 1.6 17.6 1.1 11.2 3.3 21.8 7 32.5.8 2.4 1.9 4.6 3.4 6.7.4 3.8 1.8 7.5 4.2 11 2.7 4 5.3 8 7.9 12 2.4 3.8 7.1 9 14.1 15.6 2.7 2.5 5.8 4.3 8.8 6.5 2.2 1.7 4.7 3.2 7.5 4.6 6.2 3.1 11.6 5.5 16.3 7.4 5.2 2 10.5 3.3 15.9 4 5.8.7 11.6 1.2 17.6 1.2h17.3c15.3-.1 30.1 3.3 44.2 10.2 4.1 2 7.3 4 9.7 5.9 3 2.5 5.8 5.2 8.4 7.9h.1c.1-.1.1-.2 0-.3-5.3-7.1-11.1-13.7-17.4-20-1-1-2.1-2.1-3.3-3.1-9.1-7.3-18-12.6-26.8-15.6-8.6-3-15.1-5.1-19.6-6.1-10.7-2.6-21.1-5.8-31.1-9.8-.8-.3-.8-.5 0-.6.6 0 1.2 0 1.8.2 3.7.9 7.1 2 11 2.4 5.4.5 10.6 1.1 15.9 1.2 6.7.1 13.3.3 20 .6 20.4.8 41 9.3 57.2 22.4 6.4 5.2 12 11.5 17 19h.1s.1-.1 0-.2c-5.3-13.5-15.4-26.2-26.2-35.6-6.4-5-13-9.7-19.7-14.1-4.5-2.9-8.9-5.2-13.4-6.8-3.9-2.2-7.9-3.9-11.9-5.2-9.1-3-18.6-5.7-28.2-6.9-15.7-2-31.7-3.9-46.6-9.1-13.5-4.7-24.8-12.5-33.9-23.3-6.4-7.7-11.5-16.4-15.1-26 3.2 4.3 6.8 10.1 11.1 17.3 1.6 2.8 3.8 5.3 6.5 7.5 2.1 1.7 4.5 3.3 7.3 4.6 2.8 1.4 5.5 2.8 8.1 4.4 6.6 4 14.4 6.9 23.2 8.8l10.2 2.1c3.3.7 6.7 1.1 10.2 1.5 3 .3 6 .6 8.9 1 2.8.4 5.8.6 8.9.7 4.7 0 9.6.7 14.8 1.8 1.2.3 2.4 0 3.6.4 3.7.9 7.4 1.8 11 2.7 3.4.8 7 1.9 10.8 3.3 5.1 1.8 10.3 3.5 15.4 5.1 4.5 1.4 8.9 1.9 13.1 1.7 9.7 7.9 16.3 13.4 19.7 16.7 32.1 31.1 58.6 67.6 80 106.5 3.6 6.6 7.2 13.8 10.7 21.8 0 .8-.5 1-1.2.5-.2-.1-.4-.3-.4-.5-3.9-8.6-8.6-16.7-14.1-24.2-4.7-6.5-7.1-9.7-7.1-9.8-12.6-18-25.8-35.6-40.5-51.5-4.7-5-10-9.6-14.8-14.4-1.5-1.5-1.7-1.3-.7.5 4.5 8 9.3 15.7 14.5 23.1 6.8 9.7 13.6 19.3 20.9 28.6 9.7 12.6 19.3 25.3 28.6 38.2 2.1 2.9 4.9 5.8 6.7 8.3 3.8 5.4 7.7 10.7 11.7 16 .2.3.5.4.8.5l2.5.4c2.7 5.4 8.5 20 5 25.4-.4.7-1.3.8-2 .4l-.2-.2c-4.4-4.2-8.5-8.2-12.4-12.1-21.1-21.3-40.5-41.1-60.6-59.8-.3-.3-.5-.3-.3.2 3.2 10.8 4.1 22.3 2.9 34.4-.5 4.7-1.3 8.7-2.5 12.1-3.1 8.4-6.5 16.9-14 22.5-.7.5-1.2.4-1.6-.4-.4-.8-.6-1.6-.7-2.5-2.3-22.9-5.5-46.2-12.3-68.3h-.1c-.1 0 0 0 0 .1-.3 6.2-2.3 12.4-5.9 18.5-2.3 3.9-6 4.6-10.2 4.5-.3 0-.5-.2-.5-.5v-.1c2.1-11 1.4-22.3-2.1-34.1-.3-.8-.5-.8-.7 0-.9 4.1-3.3 6.6-7.2 7.7-.8.2-1.3 0-1.3-.9-.3-14.5-5.2-26-14.7-34.3-8.3-7.3-19.2-11.1-29.8-13.1-4.7-.9-12.9-2-24.7-3.5-16.5-2-35.5-7.3-49.5-16.8-25.8-17.5-42.4-42.8-49.8-72.8-2.3-9.1-4-18.6-5.3-28.4-.8-6.4-1.7-12.4-2.7-18-1-5.9-2.6-12.3-5.2-17.7-5.2-10.8-12.6-19.1-22.4-24.8-5.2-3.1-11.4-5.9-18.5-8.5-29.5-10.8-61.7-14.6-92.7-14.4-.2 0-.4-.2-.5-.4 0-.2 0-.3.3-.4 7.5-2 15-3.2 22.7-3.6 6.2.2 12.5.2 18.7.2 4.8 0 9.3.3 13.7.9 14 2 23 3.3 27 4.1 10.6 2 21.1 4.7 31.5 7.9 6.1 1.9 11.9 4.8 17.9 7.2 2.6 1.1 5.7 1.7 8.3 1.2 11-2.3 20.5-5.7 32-1.8 4.5 1.7 8.8 3.7 12.9 6.1 2.1 1.3 4.2 2.8 6 4.6 1.9 1.8 3.7 3.7 5.4 5.5 5.9 6.5 11.6 16.7 18.5 25.2h.3v-.1c.9-6.2.5-12.1-1.1-17.5-1.7-8.4-4.4-15.5-8.3-21.4-1.8-2.8-4.6-5.7-8.3-8.7-18.1-16.2-39.4-9.1-59.6-3.8-4 1-9 1.5-14.8 1.4-1.7-.7-3.4-1.3-5.1-1.7-.1 0-.2 0-.1-.2v-.2h2.8c3.1 0 6.1-.4 9.1-1.2 5.8-1.4 11.4-3 16.7-5 9.4-3.4 21.7-5.2 31.8-3.5 23.9 4 36.6 23.9 43.5 45.7 2.2 6.9 3.5 13.9 4.1 21.2 0 .5.2.6.6.2 5.6-7 11-14.3 15.9-21.9 25-39.4 49.3-79.7 74.1-118.9 0 0 .1-.1.2 0v.2c-7.2 14.6-14.3 29.1-22 43.7-9.2 17.4-18.3 34.9-27.2 52.6Zm-102.4 5.6c.7-1.2 0-2.9-1.5-3.8s-3.4-.7-4.1.5c-.7 1.2 0 2.9 1.5 3.8 1.5.9 3.4.7 4.1-.5Z" style="fill:#13262c"/><path d="M527 56c-8.5 10.8-17.2 19.4-27.2 28.5-7.1 6.5-16.1 11.9-24.2 17.5-3.7 2.6-7.5 5.3-11.5 8.1l-47.6 23.8c0-.5.3-.9.8-1.2.3-.2.4-.4.3-.7-.2-.8-.7-1.1-1.6-1-1.4.1-2.8.5-4.2 1-.3.1-.7.2-1 .1l-4.4-.5c17.2-9.9 31.6-18.5 43.2-25.9 4.7-3 8.7-5.5 12.1-7.5 5.5-3.3 9.3-5.7 11.6-7.1 6.3-4.1 12.6-8.2 18.7-12.8 3.6-2.8 7.7-4.6 11.4-7.2 7.5-5.2 14.6-10.6 21.5-16.2.5-.4 1.1-.3 1.6.1 0 0 .3.4.6 1Z" class="st8"/><path d="M336.6 100c-1 1.5-2.2 2.7-3.7 3.6h-.3c-.2 0-.3 0-.5.2-.6.7-1.2 1.4-1.7 2.1-.4.5-1 1.1-1.9 1.9-.9.7-1.6 1.8-1.9 3-.1.3-.3.6-.5.8-.8.7-1.6 1.4-2.3 2.1-.4.4-.9.8-1.5 1-.6.3-1 .6-1.4 1.1-.6.7-1.2 1.2-2 1.7-2.5 1.7-5.1 3.5-7.9 5.5-2.1 1.5-7.1 6.1-14.9 13.8-5.4 5.4-10.5 11.3-15.7 17-5.4 5.9-10.4 12.5-15.6 18.8 0-4.2-.6-8.2-1.6-11.8v-.1h-.1c-.7-3.1-.7-5.6-.1-7.2.8-2.2 3-6.1 6.5-11.7l6.3-10.8c.2.5.3.9.3 1.4 0 .6.2.7.7.4.2-.1.4-.2.7 0 .8.3 1.5.3 2.2-.3 1.5-1.1 2.9-2.4 4.2-3.9 1.7-2 4.1-3.8 7.2-5.4 1.2-.6 2.2-1.5 3-2.6 4.1-5.9 8.2-11.8 12.4-17.6 1.7-2.4 3.6-4.8 5.7-7.4.5-.6.7-.5.8.2v1.7c.2.7 0 1.3-.4 1.8-6.4 8-13.7 17.3-17.5 25.4-1 2.1-2 4-3.2 5.8-.8 1.3-1.4 2.7-1.7 4.3-.3 1.6-.8 3.1-1.7 4.5-.9 1.6-1.8 3.2-2.5 4.7-.3.6-.2.6.3.2 10-10.2 19.3-20.4 28-30.6 3.9-4.5 8.1-8.8 11.8-13.4 5-6.2 10.1-12.4 15.3-18.6.7-.9 1.2-2.1 1.9-2.9 1.8-2 2.4-1.7 2 .9-.2 1.2-.7 2.6-1.3 4.1-.5 1.1-1 2.4-1.5 4s-1.3 2.9-2.3 3.9c-1 1-1.6 2-1.9 2.9-.1.3-.3.6-.6.7-.2.2-.4.4-.5.6v.7c.2.6.3 1.3.2 2-.5.1-.6.6-.4 1.4ZM336.8 135.6c-5.7 4-11.4 7.9-17.2 11.8-7 4.7-14.4 8.9-21.4 13.5-3.8 2.6-7.7 4.9-11.4 7.1-.5.3-1.4.6-2.6 1-.6.2-1.3.6-2 1.3-.2.2-.5.4-.8.4-2.2.4-4.2 1.1-6.1 2.2-1.5.8-2.8 1.3-3.9 1.5-1.2.2-2.5.4-3.7.7h-1c-.9-.2-2.1-.2-3.4 0 7-6 12.6-12.1 20.3-18 6.5-4.9 12.5-10.4 19.1-15.2 1.5-1.1 2.8-2.5 4.3-3.7 9.4-7.3 18.2-14.3 26.4-20.9 1.4-1.1 3.4-.1 4.8.4.4.1.7 0 1-.1 1.6-1 3-2.4 4.3-4.2.6-.9 1-1.8 1.2-2.7.3-1.6 1-2.8 2.1-3.9.2-.2.3-.4.3-.6.2-1.3 1.7-2.1 1.6-3.2 0-.3 0-.6.3-.9.7-.9 1-1.8.9-2.7-.1-.9-.6-1.3-1.5-1.4-.3 0-.5-.2-.6-.5l-.2-.6 4.7-.8c.2 0 .5.1.5.4v.2c-.9 4.4-2.1 8.4-3.6 11.9-2.2 5.1-5.9 10.7-11 16.7-2.9 3.4-6.4 5.5-9.6 8.4-.6.5-1 1.1-1.4 1.8-.2.4-.1.6.3.4 2.8-1 5.8-1.1 9-.1Z" class="st9"/><path d="m347.8 96.9.2.6c0 .3.3.5.6.5.9 0 1.4.5 1.5 1.4.1 1-.2 1.9-.9 2.7-.2.3-.3.6-.3.9 0 1-1.4 1.9-1.6 3.2 0 .2-.1.5-.3.6-1.1 1-1.8 2.3-2.1 3.9-.2 1-.6 1.9-1.2 2.7-1.3 1.8-2.8 3.2-4.3 4.2-.3.2-.6.2-1 .1-1.5-.5-3.5-1.5-4.8-.4-8.2 6.6-17 13.6-26.4 20.9-1.5 1.2-2.8 2.6-4.3 3.7-6.6 4.8-12.6 10.2-19.1 15.2-7.7 5.8-13.3 12-20.3 18-.7 0-.2-.8 1.5-2.5 5.3-6.3 10.3-12.9 15.6-18.8 5.2-5.7 10.3-11.6 15.7-17 7.8-7.7 12.7-12.3 14.9-13.8 2.8-2 5.5-3.8 7.9-5.5.7-.5 1.4-1.1 2-1.7.4-.5.9-.8 1.4-1.1.5-.2 1-.6 1.5-1 .7-.7 1.5-1.5 2.3-2.1.3-.2.4-.5.5-.8.4-1.3 1-2.3 1.9-3 .9-.7 1.5-1.4 1.9-1.9.5-.7 1.1-1.4 1.7-2.1.1-.1.3-.2.5-.2h.3v.4h.3c4.6-2.9 9.5-5.2 14.5-7.1Z" class="st0"/><path d="M497 114.7c.3-1.2 1-2.2 2.1-3.2.4-.3.4-.8.1-1.2-.1-.1-.2-.2-.4-.3-1.2-.4-2.6-.6-4.2-.6-1.5 0-2.8.4-4.1 1-3.9 2-7.5 4-10.6 6.1-1.8 1.2-5.4 3.3-10.6 6.2-1.6.9-3.1 2.2-4.7 3.1-7.5 4.7-15 9.3-22.6 13.9-15.3 9.4-31.1 17.7-47.4 25.1-13.9 6.3-27.7 12.6-41.4 19.1-3.9 1.8-7.8 3.6-11.7 5.3-1.2.3-2.1 0-2.8-.8 0-.1-.2-.1-.4 0 0 0-.1.1-.1.2 0 .3 0 .3-.3 0-.2-.2-.3-.4-.3-.6 0-.2 0-.4-.2-.5l-4.8-5.4c6.3-4.3 11.2-7.5 14.6-9.6 8.2-4.9 16.3-9.9 24.7-14.5 7.8-4.3 15.5-8.6 23.2-12.9.4-.2.9-.5 1.4-1 .5-.4.9-.7 1.4-1 6-3.4 12.2-6.5 18.5-9.4l47.6-23.8c12.6-3.3 25.6-5.6 39-6.9 1.1-.1 1.5.4 1.3 1.4-.1.6-.5 1.4-1.2 2.3-1.9 2.8-3.9 5.4-6.3 7.8Zm-46.2 13.2c2.8-1.1 5.6-2.1 8.4-3 .2 0 .3-.2.2-.4v-.1l-.3-.3c-.2-.2-.6-.3-.9-.2-6 2-11.8 4-17.5 6.1-7.4 2.7-15 5.5-22.3 8.5-6 2.4-12.1 4.7-18.2 6.9-.2 0-.3.2-.2.4v.3c.2.3.4.4.8.3 7.9-2.1 15.4-5.5 23-8 5.9-1.9 12.2-4.4 19-7.2 2.9-1.2 5.6-2.3 8.3-3.3Z" class="st7"/><path d="M497 114.7c-6.8 7.9-14.5 15-22.9 21.3 0-1.9-.4-3.1-1.1-3.8-1.3-1.2-2.6-2.5-4-3.9-.3-.3-.7-1-1.3-2-.2-.3-.4-.4-.7-.4h-2.4c1.6-1.1 3.1-2.4 4.7-3.3 5.3-2.9 8.8-5 10.6-6.2 3.1-2.1 6.6-4.1 10.6-6.1 1.2-.6 2.6-1 4.1-1 1.6 0 3 .2 4.2.6.5.2.7.6.5 1.1 0 .1-.1.3-.3.4-1.1 1-1.8 2-2.1 3.2Z" class="st8"/><path d="M122.3 128.6h-2.8v.4c0 .1 0 .2.1.2 1.7.4 3.4.9 5.1 1.7-.7 0-1.2 0-1.6.2-.5.2-.5.5 0 .8.4.3.8.6 1.3.9.5.4 1.1.6 1.7.6 7 .5 11.7.6 14.4.1 6.7-1 13.9-2.1 21.8-3.3 8.3-1.2 16.4-1.3 24.2-.2 3.4.5 6.8 2.2 10.4 5.1 5.1 5.1 9.3 10.8 12.6 17.1l-6.5-1c-.3 0-.6-.2-.8-.4-.3-.4-.6-.7-1-1-1.6-1.1-3.1-2-4.5-2.6-1.4-.6-2.7-1.4-3.9-2.5-5.9-5.1-13.3-8.6-22.2-10.4-2.1-.4-2.3 0-.4 1.1 1.7 1.1 3.7 2.2 5.9 3.2.4.2.6.5.6.9s-.2.5-.5.3c-.7-.3-1.4-.3-2.1-.1-11.5-4-21-.6-32 1.8-2.7.6-5.7 0-8.3-1.2-6-2.4-11.7-5.3-17.9-7.2-10.4-3.2-20.9-5.9-31.5-7.9-4-.8-13-2.1-27-4.1-4.4-.6-9-.9-13.7-.9-6.2 0-12.5 0-18.7-.2l1.2-.2 19-.2 8.4.4c.3 0 .6 0 .9-.3.4-.3.8-.5 1.3-.5 2 0 3.9 0 5.7.1 6.1.5 12.3 1.2 18.7 2.1 5.5.7 11.9 1.8 19.2 3.2 7.8 1.5 15.6 2.9 23.4 4.2Z" style="fill:#56888f"/><path d="m44.7 119.4-19 .2c6.3-.8 12.7-.8 19-.2Z" class="st2"/><path d="M199 133.3c-.4 1.6-1.3 2.2-2.5 1.8-3.6-2.9-7.1-4.6-10.4-5.1-7.8-1.1-15.8-1-24.2.2-7.9 1.1-15.1 2.2-21.8 3.3-2.6.4-7.4.4-14.4-.1-.6 0-1.1-.3-1.7-.6-.4-.3-.8-.6-1.3-.9-.4-.3-.4-.6 0-.8.4-.2 1-.2 1.6-.2 5.8.1 10.7-.3 14.8-1.4 20.2-5.3 41.5-12.4 59.6 3.8Z" class="st5"/><path d="M442.6 131.2c-6.7 2.9-13 5.3-19 7.2-7.5 2.5-15 5.9-23 8-.3 0-.5 0-.7-.3v-.3c-.2-.2-.1-.4.1-.4 6.1-2.1 12.1-4.4 18.2-6.9 7.3-3 14.9-5.8 22.3-8.5 5.7-2.1 11.5-4.2 17.5-6.1.3-.1.7 0 .9.2l.3.3c.1.1.1.3 0 .5h-.1c-2.7.9-5.5 2-8.4 3-2.7 1-5.4 2.1-8.3 3.3Z" class="st10"/><path d="M464.7 125.9h2.4c.3.2.6.3.7.6.5 1 1 1.7 1.3 2 1.4 1.4 2.7 2.6 4 3.9.7.6 1 1.9 1.1 3.8-7.9 6-15.2 10.5-21.8 13.5-9.7 4.5-19.3 9-28.9 13.7-3.8 1.8-7.8 3.2-11.9 4.4-7.3 2.1-11.4 3.2-12.2 3.5-12 4-24 8-36.1 12-.8.3-1.1.8-.8 1.5.1.3 0 .6-.1.8-.7.8-1.8 1-3.2.7-5.2.8-10.5 2-16 3.6-1.1.3-1.5.2-1.4-.4 3.9-1.7 7.8-3.5 11.7-5.3 13.7-6.5 27.6-12.9 41.4-19.1 16.3-7.4 32.1-15.8 47.4-25.1 7.6-4.6 15.1-9.3 22.6-13.9ZM416.5 133.9c-6.3 2.9-12.5 6-18.5 9.4-.5.3-1 .6-1.4 1-.6.5-1.1.8-1.4 1-7.7 4.3-15.4 8.6-23.2 12.9-8.3 4.6-16.5 9.6-24.7 14.5-3.4 2-8.3 5.2-14.6 9.6-14.2 8.8-28.4 18.6-42.5 29.3-5.1 3.9-10.9 7.8-17.4 11.7-.5-.1-.9-.3-1-.6-.2-.3-.4-.6-.7-.8-.2-.2-.5-.3-.7-.4-.4-.1-.5-.4-.4-.8v-1l33.3-24c19.3-13.5 32.3-22.2 38.8-26.1 11.3-6.7 22.6-13.4 33.9-20.2l30.4-17.8 4.4.5c.4 0 .7 0 1-.1 1.4-.6 2.8-.9 4.2-1 .9 0 1.4.3 1.6 1 0 .3 0 .5-.3.7-.4.2-.7.6-.8 1.2Z" class="st0"/><path d="M199 133.3c3.7 3 6.5 5.9 8.3 8.7 3.8 5.9 6.6 13 8.3 21.4-.1.3-.3.4-.3.4-.5 0-.8-.4-1-.8-1.7-3.8-3.3-7.5-5.1-11-3.3-6.3-7.6-12-12.6-17.1 1.2.4 2-.2 2.5-1.8Z" class="st2"/><path d="M209.2 152.1c1.7 3.5 3.4 7.2 5.1 11 .2.4.6.7 1 .8 0 0 .2-.1.3-.4 1.7 5.4 2 11.3 1.1 17.5 0 .1-.1.2-.2.2h-.1c-6.9-8.6-12.6-18.8-18.5-25.2-1.7-1.8-3.5-3.7-5.4-5.5-1.9-1.8-3.9-3.3-6-4.6-4.1-2.4-8.4-4.4-12.9-6.1.7-.2 1.4-.2 2.1.1.3.1.5 0 .5-.3 0-.4-.2-.7-.6-.9-2.2-1-4.1-2-5.9-3.2-1.8-1.2-1.7-1.5.4-1.1 8.9 1.8 16.3 5.3 22.2 10.4 1.2 1 2.5 1.9 3.9 2.5 1.5.6 3 1.5 4.5 2.6.4.3.7.6 1 1 .2.2.4.4.8.4l6.5 1Z" class="st1"/><path d="M376 149.5c-11.3 6.8-22.6 13.5-33.9 20.2-6.5 3.9-19.5 12.6-38.8 26.1-3.3-1.1-5.8-1.7-7.5-1.8-2-.2-3.6-.4-4.7-.7-.4 0-.7 0-.9.3-.2.2-.4.2-.6 0-.3-.2-.6-.3-.9-.2-1.5.3-3 .2-4.4-.3-.4-.1-.6 0-.9.2-.3.4-.8.6-1.4.5-.3 0-.6 0-.9.2-.6.4-1.2.6-1.9.6 18.3-13.5 40-29.1 65.2-46.7 6.7-4.7 11.1-7.7 13.5-9.2.6.2 1.1.4 1.5.6h.2c0-.2.1-.2.2-.2-.1 0-.2-.2-.3-.3v-.2c0-.5.4-.6.8-.5.9.2 1.4.7 1.6 1.5 0 .3.3.5.6.6 2.3.6 4.6 1.6 6.9 3 .2.1.3.3.4.6 0 .5-.1.8-.6.9h-.4c-.8 0-.8.3 0 .6l3 1.2c0 .2.1.3 0 .4-.1.3-.1.4 0 0 .1-.2.3-.3.5-.2 1.5.8 2.8 1.8 3.9 3.1Z" class="st7"/><ellipse cx="164.1" cy="145.6" class="st5" rx="2.5" ry="3.2" transform="rotate(-59.3 164.117 145.639)"/><path d="M194.6 167.7c-.3.4-1 .7-2.1.8-1.1.1-1.8.2-2.2.3-7.2 1.2-14.1-.2-20.8-4.2-7.2-4.3-12.8-9.7-16.8-16.1 1.7 1 3.6 2.9 5.6 5.6 1.9 2.5 4.8 3.4 8.5 2.8 5.9-1 8.3-4.4 7.3-10.3 0-.4 0-.5.4-.2 2.6 2.1 5.5 3.2 8.3 5.3 5.4 4.1 9.3 9.4 11.8 16Z" class="st2"/><path d="M149.3 153.2c5.7 4.4 10.2 10.8 14.7 16.3 6.5 8.9 13.2 15.8 20.2 20.9 6.5 4.7 14.6 8.5 24.5 11.2-4.5-.7-9-1.9-13.3-3.6-6.1-2.4-11.9-5.5-17.3-9.2-3.2-2.2-6.1-5.1-9-7.8-2.2-2.1-4.3-4.2-6.1-6.5-4.1-5-8.4-9.7-12.8-14.1-5.4-5.5-14.5-12.4-22.7-11.8-1-.2-1.9-.6-2.6-1.3-.4-.3-.3-.5.2-.5 8.6 0 17 1.1 24.4 6.3Z" class="st5"/><path d="M127.4 148.7c8.2-.6 17.3 6.4 22.7 11.8 4.4 4.4 8.7 9.1 12.8 14.1 1.8 2.2 3.9 4.4 6.1 6.5 2.9 2.7 5.8 5.6 9 7.8 5.4 3.7 11.2 6.8 17.3 9.2 4.3 1.7 8.8 2.9 13.3 3.6 6.4 2.1 13 3.5 19.9 4.2 0 1.6-.9 3-2.5 4.1-.5.4-1.1.5-1.7.6-1.5 0-3 .9-4.6 1.2-4.4.9-7.3 1.5-8.7 1.7-3.4.6-7.2.8-11.2.6-3.1 0-6.5-1-9.8-1.5-2.3-.4-4.2-1.3-6.3-2.2-2.1-.9-3.8-2.5-5.7-3.6-1.8-1-2-.7-.7.8 5.7 6.8 12.4 13.1 20.2 18.9-1.7.4-2.7.8-3.2 1.4-.2.2-.4.4-.7.4h-1.8c-7.8-5-15.2-11.9-22-20.6-.5-.6-1.7-1.7-3.7-3.4-1.6-1.4-2.4-3.1-3.6-4.7-.2-.3-.5-.5-.8-.7-.4-.2-.5-.1-.6.3 0 .3 0 .5-.1.7-.8-1.4-1.2-2.4-1.4-3.2-2.1-8.6-5.2-16.6-9.5-24.2-.9-1.6-1.3-3.3-2.1-4.9-.2-.3-.5-.5-.9-.4h-.3c-.3.1-.4.3-.3.6 4.3 7.7 7.4 15.6 9.3 23.7 1.1 4.8 2.5 9.4 4 13.6 1.6 4.5 3 7.9 4.2 10 5.9 11 12.5 20.4 22.2 28.7 2.9 2.4 6.5 4.9 10.8 7.3 4.6 2.6 8.7 4.6 12.2 6.1 7.9 3.4 16.6 5.7 26.1 7.1 6.8 1 13.6 1.9 20.5 2.7-1.4.2-2.8.1-4.1-.1h-.2c0 .1-.2.2-.3.3-1.5.3-3.1.4-4.6.2h-1c-1 .3-1.9.2-2.7-.3-.3-.2-.6-.2-.9-.1-1.7.4-3.4.3-5.1-.3-1.4-.4-2.9-.8-4.3-1-3.7-.6-7.1-1.3-10.1-1.9-1.2-.3-2.5 0-3.4-.7-.3-.3-.6-.4-1-.5-1.9-.3-3.7-.9-5.4-2-1.4-.9-3.1-1.4-5.2-1.4-.2 0-.4-.1-.5-.4 0-.3-.3-.5-.6-.5-1-.1-2-.3-3-.7-.3-.1-.5-.1-.8 0l-2.2.9c-.6.2-.6.5 0 .7.2 0 .3.2.3.4.1.4 0 .7-.4.9-.1 0-.2.1-.3.2-.3.3-.6.4-.9.1-.3-.2-.7-.2-1.2.2-.5.3-1.1.5-2 .4-5.7-3.5-10.9-7.5-15.8-12-.4-.4-.8-.6-1.1-.6-.3 0-.5.2-.5.4 0 .1 0 .3.1.4 1.4 1.7 2.7 3.5 4 5.3 1.5 2.1 2.8 3.8 4 5.2 3.6 4.3 7.2 8.6 10.7 12.9 1.1 1.3 3.7 3.7 7.9 7.2.3.2.6.4.9.5.4.1.7.3 1 .6 2.4 2.8 5.3 5.3 8.6 7.4.4.3.4.4-.1.4h-.3c-.3 0-.6 0-.9-.2-1.2-.8-2.5-1.3-3.9-1.6-2.7-1.5-5.3-3.1-8-4.7-8.3-5-15.1-11-20.4-18-1.6-2.1-3.3-4.1-4.9-5.9-.8-.8-.9-1.8-1.7-2.5-.8-.8-1.2-1.4-1.4-1.8-.9-1.5-1.8-3.1-2.8-4.6-.9-1.5-1.8-3.1-2.6-4.7-1-1.9-2-3.9-3.2-6.1-1.4-2.7-2.7-5.8-3.7-9.5-.4-1.3-.8-2.5-1.2-3.8-.5-1.3-1-2.5-1.5-3.7 0 0 0-.1-.2-.1h-.3s-.1.2-.1.3c.4 2 1 4.1 1.7 6.4.8 2.5 1.5 5.1 2.1 7.9.7 3.5 1.4 6.1 1.9 7.8 2.3 7.2 5.6 14.3 9.9 21.2 4.6 7.4 9.5 14 14.6 19.8.6.7 1.3 1.4 2 2 .1 0 .1.2 0 .3v.2c-.3.2-.4.3-.6 0-1.5-1.4-3-2.8-4.7-4.1-1.4-1.1-2.7-2.4-3.9-3.8-5.4-6.7-10.6-13.5-15.5-20.5-.6-.9-1.6-1.1-2.6-1.2-.3 0-.6-.2-.7-.5-.3-.6-.7-1.1-1.2-1.4-1.4-2.1-2.6-4.4-3.4-6.7-3.7-10.7-5.8-21.3-7-32.5-.6-6.3-1.2-12.1-1.6-17.6-.9-11.3-3.7-21.9-8.2-31.8-3.6-7.8-7.8-13.6-12.7-17.6-.4-.3-.7-.7-.8-1.2l-.2-.5Z" class="st7"/><path d="M152.7 148.6c4 6.4 9.6 11.7 16.8 16.1 6.7 4 13.6 5.4 20.8 4.2.4 0 1.1-.2 2.2-.3 1.1-.1 1.8-.4 2.1-.8 1.8 3 3.5 6.1 5 9.4 1.7 3.7 3.3 6.7 4.7 8.9 1.8 2.9 3.5 5.7 5.2 8.6.3.5.1.6-.4.6-6.8-.9-13.4-3.2-19.6-7-5.3-3.2-10.1-6.4-14.4-9.7-3.6-2.8-7-6.1-10.2-9.8-.2-.3-.6-.3-.8 0l-.2.2c-.1.2-.1.5 0 .8-4.5-5.5-9-11.9-14.7-16.3.4-.7.4-1.2 0-1.5-.2-.2-.3-.5-.1-.7.3-.5.6-.7 1.1-.7 2 .2 2.8-.4 2.4-1.7Z" class="st1"/><path d="M454.7 171.7c0-.9.4-1.6 1.2-2.2.3-.2.4-.4.5-.8l.5-1.7c.2-.6 0-.8-.6-.6-.7.3-1.6.2-2.5-.3-.3-.1-.6-.2-.9-.1-1.1.2-2.3.4-3.5.5-1.1.1-2.1.5-3.1 1s-1.9 1-2.9 1.6c-2.4 1.4-5 2.4-7.8 3 .1-.5 0-.9-.1-1.2-.2-.3-.5-.4-.8-.3-4.7.8-9.4 1.7-14.1 2.8-2.8.7-5.5 1.2-7.9 1.7-5.5 1-10.8 2.8-16.3 3.8-2.9.5-5.7 1.1-8.4 1.8-5.7 1.4-11.3 2.9-17 4.4-1.3.4-3 .7-4.8.9-.2 0-.3.2-.3.4v.3c.1.4.4.6.8.6 2.5 0 4.9-.2 7.1-.3 2.8-.2 5.5-1.1 8.3-1.9 1.6-.4 3.1-.9 4.7-1.4 1.5-.5 3.2-.9 4.9-1.2 4.1-.6 8.2-1.4 12.5-2.2 1.9-.4 3.7-.9 5.4-1.5 1.9-.7 3.6-1.2 5.3-1.3 1.9-.2 3.8-.4 5.7-.8 1.3-.2 2.5-.8 3.8-1.1.9-.2 1.7-.4 2.7-.8 1.6-.7 3.2-.9 4.8-.8-8.9 3.4-17.7 7-26.4 10.7-2.4 1.1-5.2 1.8-7.7 2.6-1.3 0-2.5.2-3.7.9-.3.2-.5 0-.6-.2-.5-1.1-1.3-1.6-2.5-1.4-2.2.3-4.4.7-6.5 1-.4 0-.7.2-1.1.4-.5.3-1 .4-1.6.5-2 0-4.3.4-7 .9-.5 0-.8.3-1.1.7-.2.3-.6.5-1 .5-2.5 0-4.8 0-7.1.1-.8 0-1.5 0-2.3-.2-.6-.2-.6-.3 0-.5.3-.1.4-.3.5-.6 0-.4-.2-.6-.6-.6h-5c-.6.1-1.1-.3-1.1-.9v-.5c.1-.3.4-.5.8-.5h3.8c.8 0 .9-.1 0-.3-.6-.2-1.4-.3-2.5-.4 1.4.4 2.5.2 3.2-.7.2-.2.3-.6.1-.8-.3-.7 0-1.3.8-1.5 12-4 24-8 36.1-12 .8-.3 4.8-1.4 12.2-3.5 4.1-1.2 8.1-2.6 11.9-4.4 12-2.3 24.1-3.4 36.3-3.3 1.1 0 2.1 0 3 .2.3 0 .6.4.5.7v.2c-2.3 3.9-5.1 7.4-8.4 10.6Z" class="st8"/><path d="M454.7 171.7c-12.8 12.9-27.9 20.8-45.4 25.6 0-.7-.2-1.4-.7-2-.5-.5-1-.9-1.7-1.1-1.4-.5-2.7-1.1-3.9-2-.3-.2-.6-.3-.9-.4-1.6-.1-3.2-.3-4.9-.4-.9 0-1.4-.6-1.5-1.5 0-.3-.2-.5-.5-.4l-2.7.5 5.1-2.4c2.5-.9 5.3-1.6 7.7-2.6 8.7-3.7 17.5-7.3 26.4-10.7.9-.8 2.2-1.5 3.9-2 2.8-.6 5.3-1.6 7.8-3 .9-.6 1.9-1.1 2.9-1.6s2-.9 3.1-1c1.2-.2 2.4-.3 3.5-.5.3 0 .6 0 .9.1.9.5 1.8.6 2.5.3.6-.2.8 0 .6.6l-.5 1.7c0 .3-.3.6-.5.8-.8.6-1.2 1.3-1.2 2.2Z" class="st0"/><path d="m161 200 2.6 6.1c3.6 9.6 8.6 18.3 15.1 26 9 10.8 20.3 18.6 33.9 23.3 15 5.2 31 7.1 46.6 9.1 9.5 1.2 19.1 4 28.2 6.9 4 1.3 8 3 11.9 5.2-3.3-1-6.5-2-9.6-3-3.2-1-6.5-1.8-9.7-2.5-4.9-1-9.8-2-14.8-2.9-3.1-.6-6.3-1-9.5-1.1-6.8-.8-13.7-1.7-20.5-2.7-9.5-1.4-18.2-3.7-26.1-7.1-3.5-1.5-7.5-3.5-12.2-6.1-4.4-2.4-8-4.9-10.8-7.3-9.7-8.2-16.3-17.7-22.2-28.7-1.2-2.2-2.5-5.5-4.2-10-1.5-4.3-2.9-8.8-4-13.6-1.9-8.1-5-16-9.3-23.7-.2-.3 0-.5.3-.6h.3c.4-.1.7 0 .9.4.8 1.6 1.2 3.3 2.1 4.9 4.3 7.5 7.5 15.6 9.5 24.2.2.8.7 1.8 1.4 3.2Z" class="st5"/><path d="M435.7 172.2c-1.7.5-2.9 1.1-3.9 2-1.6-.2-3.2.1-4.8.8-.9.4-1.8.6-2.7.8-1.3.2-2.5.8-3.8 1.1-1.9.3-3.8.6-5.7.8-1.6.2-3.4.6-5.3 1.3-1.7.6-3.5 1.2-5.4 1.5-4.3.8-8.4 1.6-12.5 2.2-1.7.3-3.3.7-4.9 1.2-1.6.5-3.1 1-4.7 1.4-2.8.7-5.5 1.6-8.3 1.9-2.2.2-4.6.3-7.1.3-.4 0-.7-.3-.8-.6v-.3c0-.2 0-.4.2-.4 1.9-.3 3.5-.6 4.8-.9 5.7-1.5 11.3-3 17-4.4 2.7-.7 5.5-1.3 8.4-1.8 5.5-1 10.8-2.7 16.3-3.8 2.5-.5 5.1-1 7.9-1.7 4.7-1.1 9.4-2 14.1-2.8.3 0 .6 0 .8.3.2.3.2.7.1 1.2Z" class="st7"/><path d="m332.7 182.3 4.8 5.4c.1.1.2.3.2.5s.1.5.3.6c.2.2.3.2.3 0s0-.2.1-.2h.4c.7.8 1.7 1.1 2.8.8-.1.6.4.8 1.4.4 5.5-1.6 10.8-2.8 16-3.6 1 0 1.9.2 2.5.4.8.2.8.3 0 .3h-3.8c-.4 0-.6.2-.8.5v.5c0 .6.5 1.1 1 1.1h5c.4-.1.6 0 .6.5 0 .3-.2.5-.5.6-.6.2-.6.4 0 .5.8.2 1.5.3 2.3.2 2.2-.1 4.6-.2 7.1-.1.4 0 .8-.1 1-.5.3-.4.7-.6 1.1-.7 2.7-.5 5-.8 7-.9.6 0 1.2-.2 1.6-.5.3-.2.7-.3 1.1-.4 2.1-.3 4.3-.7 6.5-1 1.2-.2 2.1.3 2.5 1.4.1.3.3.4.6.2 1.2-.6 2.4-.9 3.7-.9l-5.1 2.4c-5.3 2.1-10.7 3.9-16.1 5.5-8 2.3-13.4 4-16.3 4.9-9.8 3.1-19.8 5.5-29.5 8.8-3 1-5.9 1.9-8.7 2.6-10 2.7-20.2 5.4-30.7 8-6.3 1.6-12.6 2.5-18.7 4.5-.3 0-.4 0-.3-.3 0-.2.3-.5.7-.7 6.5-3.9 12.3-7.8 17.4-11.7 14.1-10.7 28.2-20.4 42.5-29.3Z" class="st3"/><path d="m409.3 197.3-28 6.6c-1.7 1.1-3.7 1.8-5.9 2.1-1 .1-2 .2-3 .4-3.2.5-6.2.9-9.2 1.3-3 .4-5.9.9-8.8 1.6-3 .7-5.9 1.2-8.8 1.7-3.3.5-6.6 1.1-9.9 1.6-3.4.6-6.7 1.1-10 1.5-3.6.4-7 1-10.4 1.7-.4 0-.7.3-.8.7-.2.6 0 1 .3 1.2 3.7 1.8 7.5 3.3 11.2 4.5 1.7.6 3.5 1 5.4 1.2.2 0 .4 0 .5.2l.5.2c.3.2.6.2.9.2 5.2 0 10.4-.5 15.5-1.3 2.3-.3 4.5-.6 6.8-.7 2.4-.2 4.6-.4 6.7-.8.3 0 .6-.2.8-.5.2-.2.4-.4.6-.4 2-.6 3.9-1.1 5.8-1.5.4 0 .7-.3.8-.7.5-1.2 1.4-1.9 2.7-2.2 1.1-.2 2.3-.5 3.5-.7 1-.2 2.2-.3 3.5-.3 3.8 0 7.5-.5 11-1.5 3.1-.9 6.3-.6 9.5-.9.4 0 .7 0 1 .2.8.3 1.8.5 2.8.4.3 0 .6 0 .9.2 2 .9 3.4.2 5.4.5.7 0 1.5 0 2.3-.2l3.6-.9c1.9-.5 2.8.1 2.7 1.8-10.3 9.7-25.4 15.9-39.6 17.3-5.5.5-11.4 1.1-17.7 1.6-4.3.3-8.4.1-12.7.1v.2c8.5 1.6 16.6 3.5 24.4 5.7 2.9.8 5.4 2.1 7.6 4 .7.6.8 1.7.2 2.4l-.2.2c-3.4 3.1-7.3 5.6-11.7 7.6-.7-.6-.6-1.2.1-1.6.3-.1.5-.4.6-.7.1-.3 0-.5-.2-.7-.3-.2-.6-.4-.9-.4-1.6-.2-3-.8-4.2-1.8-.3-.2-.6-.4-1-.4-7.3-.9-13.5-1.5-18.7-1.7-3.5-.1-6.9-.4-10.3-.8-1-.1-1.9-.4-2.7-.9-.3-.2-.6-.2-.9-.2-1.8.3-3.5.1-5.1-.3-1.4-.4-2.9-.7-4.3-.8-4.3-.2-8.7-.2-13.4 0-15.8.6-30.7 2.1-44.7 4.4-4.9.8-9.7.5-14.6.6-.4 0-.8 0-1.2-.3-2.2-1.4-4.6-1.9-7.2-1.5-2 .3-3.9.2-5.5-.4-.3-.1-.6-.3-.8-.6-.4-.6-1-.8-1.8-.9-.3 0-.6-.1-.8-.4-1.8-1.8-3.6-2.6-5.4-2.4-5.2.4-9.5.2-12.8-.7 5.1-.4 10.7 0 15.1-.6 5.2-.8 9.9-2.2 13.9-4.2 7.7-3.9 16.7-9.3 27.1-16.3.1.3.2.7 0 1-.1.4 0 .6.4.8.3 0 .5.2.7.4.3.2.5.5.7.8.2.3.5.5 1 .6-.4.2-.6.5-.7.7 0 .3 0 .4.3.3 6.2-2 12.4-2.9 18.7-4.5 10.5-2.6 20.7-5.3 30.7-8 2.9-.8 5.8-1.7 8.7-2.6 9.7-3.2 19.7-5.7 29.5-8.8 2.9-.9 8.3-2.6 16.3-4.9 5.5-1.6 10.8-3.4 16.1-5.5l2.7-.5c.3 0 .5 0 .5.4 0 .9.5 1.5 1.5 1.5 1.6.1 3.3.2 4.9.4.3 0 .7.1.9.4 1.2.9 2.5 1.6 3.9 2 .6.2 1.2.6 1.7 1.1.5.6.8 1.3.7 2Z" class="st4"/><path d="m303.3 195.8-33.3 24c-10.3 7-19.4 12.5-27.1 16.3-4 2-8.7 3.4-13.9 4.2-4.4.6-10.1.2-15.1.6-1.5-.3-3-.7-4.6-1.1-1.8-.5-5.1-2-10-4.7-1.8-1-4.3-3.1-7.5-6.5h1.8c.3-.2.5-.3.7-.5.5-.6 1.5-1 3.2-1.4l7.5 3.6c1.8-.8 3.4-1 5-.7 9.4-.6 17.9-2.7 25.2-6.3 5-2.4 11.5-6.3 19.2-11.5 8.4-5.6 16.6-11.4 24.7-17.3.6 0 1.2-.2 1.9-.6.3-.2.6-.2.9-.2.6.1 1 0 1.4-.5.2-.3.5-.4.9-.2 1.4.5 2.9.6 4.4.3.3 0 .7 0 .9.2.2.2.4.2.6 0 .3-.3.6-.4.9-.3 1.1.3 2.7.5 4.7.7 1.7.2 4.2.8 7.5 1.8Z" class="st3"/><path d="M191.8 228.6c3.2 3.3 5.7 5.5 7.5 6.5 4.9 2.7 8.2 4.3 10 4.7 1.6.4 3.1.8 4.6 1.1 3.3.9 7.6 1.2 12.8.7 1.8-.1 3.6.7 5.4 2.4.2.2.5.3.8.4.8 0 1.3.3 1.8.9.2.3.5.5.8.6 1.6.6 3.5.7 5.5.4 2.6-.4 5 .1 7.2 1.5.4.2.8.4 1.2.3 4.9-.1 9.6.2 14.6-.6 13.9-2.3 28.8-3.8 44.7-4.4 4.6-.2 9.1-.2 13.4 0 1.4 0 2.9.3 4.3.8 1.6.5 3.3.6 5.1.3.3 0 .6 0 .9.2.8.5 1.7.8 2.7.9 3.4.4 6.9.7 10.3.8 5.2.2 11.4.7 18.7 1.7.4 0 .7.2 1 .4 1.2 1 2.6 1.6 4.2 1.8.4 0 .7.2.9.4.2.2.3.5.2.7-.1.3-.3.5-.6.7-.8.4-.8.9-.1 1.6-8.4 3.5-16.5 4.9-24.1 4.2-8.5-.7-17-1.5-25.5-2.3-7.5-.9-15-1.2-22.4-1-1.3 0-1.4.4-.3 1.1 0 0 .2.1.5.4.2.1.3.2.5.3 3.1.9 6.2 1.8 9.3 2.8 2.1.7 5.1 1.8 9.1 3.4 5.5 2.2 11.2 4.1 17.1 5.6l-7.5.8c-4.2.3-8.6-.3-13.1-1.7-5.2-1.6-10.3-3.2-15.4-5.1-3.9-1.4-7.5-2.5-10.8-3.3-3.7-.9-7.4-1.8-11-2.7-1.2-.3-2.4-.1-3.6-.4-5.1-1.1-10.1-1.7-14.8-1.8-3.1 0-6.1-.3-8.9-.7-2.9-.4-5.8-.8-8.9-1-3.4-.3-6.8-.8-10.2-1.5l-10.2-2.1c-8.8-1.9-16.5-4.8-23.2-8.8-2.7-1.6-5.4-3.1-8.1-4.4-2.8-1.4-5.2-2.9-7.3-4.6-2.7-2.3-4.9-4.8-6.5-7.5-4.2-7.2-7.9-13-11.1-17.3l-2.6-6.1c0-.2.1-.4.1-.7 0-.4.2-.5.6-.3.3.2.6.4.8.7 1.2 1.7 2 3.4 3.6 4.7 2 1.7 3.2 2.8 3.7 3.4 6.9 8.6 14.2 15.5 22 20.7Z" class="st9"/><path d="M381.3 203.9c11.7 0 23.2 1.2 34.5 3.6 2.2.5 4.1 1.2 5.9 2.4.3.2.5.6.4 1-.4 1.4-1.3 2.6-2.7 3.6 0-1.6-.9-2.2-2.7-1.8-1.2.3-2.3.6-3.6.9-.8.2-1.6.3-2.3.2-1.9-.2-3.4.5-5.4-.5-.3-.1-.6-.2-.9-.2-1 0-1.9 0-2.8-.4-.3-.1-.7-.2-1-.2-3.2.3-6.3 0-9.5.9-3.5 1-7.2 1.5-11 1.5-1.4 0-2.5 0-3.5.3-1.2.2-2.4.5-3.5.7-1.4.3-2.3 1-2.7 2.2-.1.4-.4.6-.8.7-1.9.4-3.9.9-5.8 1.5-.3 0-.5.2-.6.4-.2.3-.5.5-.8.5-2.1.4-4.3.6-6.7.8-2.3.1-4.5.4-6.8.7-5.1.8-10.3 1.2-15.5 1.3-.3 0-.6 0-.9-.2l-.5-.2c-.2 0-.4-.1-.5-.2-1.9-.2-3.7-.6-5.4-1.2-3.7-1.2-7.5-2.8-11.2-4.5-.4-.2-.4-.6-.3-1.2 0-.4.4-.6.8-.7 3.3-.7 6.8-1.3 10.4-1.7 3.3-.4 6.6-.9 10-1.5 3.3-.6 6.6-1.1 9.9-1.6 2.9-.5 5.9-1 8.8-1.7 2.9-.7 5.9-1.2 8.8-1.6 3-.4 6.1-.8 9.2-1.3 1-.2 2-.3 3-.4 2.2-.2 4.2-.9 5.9-2.1Z" class="st3"/><path d="m228.5 205.9 11.7.4c1.2 0 1.3.4.3 1.1-4.1 2.8-8.2 5.5-12.2 8.1-4.3 2.8-8.4 6.5-13 8.6-3.2 1.5-6.1 3.4-9.3 4.7-.3.1-.5.3-.7.6l-.4.8-7.5-3.6c-7.8-5.8-14.5-12.2-20.2-18.9-1.3-1.6-1.1-1.8.7-.8 2 1.1 3.7 2.7 5.7 3.6 2.1.9 4 1.8 6.3 2.2 3.3.5 6.6 1.4 9.8 1.5 4 .1 7.8 0 11.2-.6 1.4-.2 4.3-.8 8.7-1.7 1.5-.3 3-1.2 4.6-1.2.6 0 1.2-.2 1.7-.6 1.7-1.2 2.5-2.5 2.5-4.1Z" class="st0"/><path d="M210.4 287.3c9.8 4.9 19.6 8.6 29.2 11 22.2 5.4 39.6 9.8 52 13.2 4.7 1.3 9.3 3 14 5.1 1.7.8 3.9 2.2 6.7 4.2.2.1.4.1.6 0 .1-.1.2-.3.2-.4 0-.1 0-.2-.2-.3-.3 0-.3-.3-.2-.6 1.2 1 2.3 2.1 3.3 3.1 6.3 6.2 12.1 12.9 17.4 20v.3h-.1c-2.6-2.8-5.4-5.4-8.4-7.9-2.3-2-5.6-3.9-9.7-5.9-14.1-6.9-28.9-10.3-44.2-10.2h-17.3c-6 0-11.8-.5-17.6-1.2-5.5-.6-10.8-2-15.9-4-4.7-1.9-10.2-4.3-16.3-7.4-2.8-1.4-5.3-2.9-7.5-4.6-3-2.2-6.1-4-8.8-6.5-7.1-6.6-11.8-11.8-14.1-15.6-2.5-4.1-5.2-8.1-7.9-12-2.4-3.5-3.8-7.2-4.2-11 .5.3.9.8 1.2 1.4.2.3.4.4.7.5 1 0 2 .3 2.6 1.2 4.9 7 10.1 13.8 15.5 20.5 1.1 1.4 2.4 2.7 3.9 3.8 1.7 1.3 3.3 2.7 4.7 4.1.2.2.4.2.5 0v-.2c.2-.1.2-.2 0-.3-.7-.6-1.4-1.3-2-2-5.1-5.8-9.9-12.4-14.6-19.8-4.4-6.9-7.7-14-9.9-21.2-.5-1.6-1.1-4.2-1.9-7.8-.6-2.8-1.3-5.4-2.1-7.9-.7-2.3-1.3-4.5-1.7-6.4 0-.1 0-.2.1-.3h.3s.1 0 .2.1c.5 1.2 1 2.4 1.5 3.7.5 1.2.9 2.5 1.2 3.8 1 3.7 2.3 6.8 3.7 9.5 1.2 2.2 2.2 4.2 3.2 6.1.8 1.6 1.7 3.2 2.6 4.7.9 1.6 1.9 3.1 2.8 4.6.2.3.7.9 1.4 1.8.7.8.9 1.7 1.7 2.5 1.7 1.8 3.3 3.8 4.9 5.9 5.3 7 12.1 13 20.4 18 2.6 1.6 5.3 3.2 8 4.7Z" class="st9"/><path d="M195.8 261.5c10.2 7.3 23.7 11.2 36 12.8 3.2.4 6.1.7 8.9.8 2.3.1 4.6.3 7 .4 8.6.4 17.5.2 25 1 4.8.5 9.7 1.3 14.5 2.5 4.5 1.1 9.2 2.1 14.1 3 1.6.3 3.1.6 4.5 1.3 4.8 2.1 9.3 4.3 13.3 6.4 3.2 1.7 7.4 4.4 12.6 8.3.3.2.5.2.7-.1v-.4c10.8 9.4 20.9 22.1 26.2 35.6v.2h-.1c-5-7.5-10.7-13.8-17-19-16.1-13.2-36.8-21.6-57.2-22.4-6.7-.3-13.4-.5-20-.6-5.3-.1-10.6-.7-15.9-1.2-3.9-.4-7.3-1.4-11-2.4-.6-.1-1.2-.2-1.8-.2-.9 0-.9.2 0 .6 10.1 4 20.4 7.2 31.1 9.8 4.5 1.1 11 3.1 19.6 6.1 8.8 3.1 17.7 8.3 26.8 15.6-.1.3 0 .5.2.6.1 0 .2.1.2.3 0 .2 0 .3-.2.4-.2.1-.4.1-.6 0-2.7-2-4.9-3.4-6.7-4.2-4.6-2.1-9.3-3.8-14-5.1-12.4-3.4-29.7-7.8-52-13.2-9.7-2.4-19.4-6-29.2-11 1.4.3 2.6.8 3.9 1.6.3.2.6.3.9.2h.3c.5 0 .6 0 .1-.4-3.3-2.1-6.2-4.5-8.6-7.4-.3-.3-.6-.5-1-.6-.3 0-.6-.3-.9-.5-4.2-3.5-6.8-5.9-7.9-7.2-3.6-4.3-7.1-8.6-10.7-12.9-1.2-1.4-2.5-3.2-4-5.2-1.3-1.8-2.6-3.6-4-5.3-.2-.2-.1-.5 0-.7.1 0 .2-.1.4-.1.3 0 .7.2 1.1.6 4.9 4.5 10.1 8.5 15.8 12Z" class="st4"/><path d="M320.2 255.5c-.5 0-.8 0-.9.2-.2.2-.2.4 0 .4 6.8 2.3 12.9 3.1 19 7.5.8.6 1.4 1.3 1.8 2.1.2.3 0 .8-.3 1-2.1 1.2-3.9 1.7-5.6 1.5-5.9-1.5-11.7-3.3-17.1-5.6-4-1.6-7-2.8-9.1-3.4-3.1-1-6.2-1.9-9.3-2.8-.2 0-.4-.2-.5-.3-.3-.2-.5-.4-.5-.4-1.1-.7-1-1 .3-1.1 7.4-.2 14.8 0 22.4 1Z" class="st0"/><path d="M255.7 267.1c3.2.2 6.4.5 9.5 1.1 4.9.9 9.8 1.9 14.8 2.9 3.2.7 6.4 1.5 9.7 2.5 3.1 1 6.3 1.9 9.6 3 4.5 1.6 8.9 3.8 13.4 6.8 6.8 4.4 13.3 9.1 19.7 14.1v.4c-.2.3-.4.3-.7.1-5.2-3.9-9.4-6.6-12.6-8.3-4-2.1-8.5-4.3-13.3-6.4-1.5-.7-3-1-4.5-1.3-4.9-.9-9.6-1.9-14.1-3-4.8-1.2-9.7-1.9-14.5-2.5-7.4-.8-16.4-.6-25-1-2.4-.1-4.8-.3-7-.4-2.7-.2-5.7-.4-8.9-.8-12.3-1.6-25.8-5.5-36-12.8.9 0 1.6 0 2-.4.5-.4.9-.4 1.2-.2.3.2.6.2.9-.1 0 0 .2-.2.3-.2.4-.2.5-.5.4-.9 0-.2-.2-.3-.3-.4-.6-.3-.6-.5 0-.7l2.2-.9c.3-.1.5-.1.8 0 .9.4 1.9.6 3 .7.3 0 .5.2.6.5 0 .2.2.4.5.4 2 0 3.8.6 5.2 1.4 1.7 1 3.5 1.7 5.4 2 .4 0 .7.2 1 .5.9.8 2.2.5 3.4.7 3 .7 6.4 1.3 10.1 1.9 1.5.3 2.9.6 4.3 1 1.7.5 3.4.6 5.1.3.3 0 .6 0 .9.1.8.5 1.7.6 2.7.3.3 0 .6-.1 1 0 1.5.2 3.1.2 4.6-.2.2 0 .3-.1.3-.3h.2c1.3.3 2.7.3 4.1.1Z" class="st3"/><path d="m437.2 413.9 6.7 15.8-2.5-.4c-.3 0-.6-.2-.8-.5-4-5.3-7.9-10.6-11.7-16-1.8-2.5-4.6-5.5-6.7-8.3-9.4-12.9-18.9-25.6-28.6-38.2-7.2-9.3-14-18.9-20.9-28.6-5.2-7.4-10-15.1-14.5-23.1-1-1.8-.8-2 .7-.5 4.8 4.8 10.1 9.4 14.8 14.4 14.7 15.8 28 33.4 40.5 51.5 0 0 2.4 3.3 7.1 9.8 5.5 7.5 10.1 15.6 14.1 24.2 0 .2.3.4.4.5.8.4 1.2.3 1.2-.5Z" class="st1"/></svg>