<svg xmlns="http://www.w3.org/2000/svg" viewBox="0 0 595.8 703.9">
  <!-- Body (primary blue) -->
  <path
    fill="#018efa"
    d="m284.9 465.7.9-1.9c1.7-5.4 3.8-9.6 6.6-12.5 7.6-7 15.2-11.3 22.9-12.9 6-1.2 12.6-1.2 19.8.3 4.3 1.6 7 5.1 9.5 8.7 14.1 20.5 23.5 46.3 27.3 70.5 3.8 23.7 2 46.9-5.4 69.5-13.9 43-45.8 77.7-89 91.4-7.9 2.5-17.6 4.5-29.3 6.1-.1 0-.2 0-.2-.2v-.4c5.4-1.7 11-4.4 17-8.2 5.2-3.3 9.4-6.3 12.5-9.1 18.2-16 30.6-38.4 34.9-62.6 5.2-28.9 1.9-57.8-10.4-84.2-2.2-4.8-5.5-9-8.6-13.2-.1-.2-.3-.4-.5-.5-.4-.2-.7-.5-.8-.8-.3-.6-.1-.7.4-.4 20.2 13.4 35.2 29.8 43.4 52.7.4 1.1.6 1.1.5 0-.5-8-2-17-4.6-24.7-9.2-26.5-31.3-45-55.8-57.8-10.2-5.3-20.3-10.8-30.5-16.5-29.2-16.1-51.9-42.8-55.4-76.9-3.9-37.3 12.4-72.4 35.1-101 17.5-22.1 37.2-40.1 58.5-60.1 14.2-13.3 27.5-27.9 39.9-43.6 1.4-1.7 2.8-3.6 4.2-5.7 1.3-1.8 2.7-3.6 4.2-5.4-5.3 13.7-10.5 25.4-15.6 35.1-6.2 11.7-13.8 25-22.8 39.9-4 6.7-7.3 12.4-9.7 17.3-4.5 9-8.8 18.1-12.8 27.4-11.8 20.2-21.1 41.3-27.8 63.2-8.8 29-8.8 61 7.2 87.1 2.4 3.9 4.9 7.2 7.6 10.1 1.2 1.3 1.4 1.1.5-.4-2.5-4.3-4.3-9.1-5.5-14-7.1-29-.1-60.2 15.7-85.6 12.2-19.5 28.3-37.4 45.9-52.5 16.2-13.9 35.1-27.6 52.5-39.9 15.6-11 30.6-22.2 45.1-33.6 7.5-5.9 16.1-13.2 25.8-22 8.7-7.8 16.3-15.6 24.1-23.9 21.4-22.9 39.9-49.4 51.8-78.2 4.4-10.5 7.8-21.8 10.2-33.8 3.2-15.8 3.3-31.6 1.1-47.3-.6-4-1.4-7.9-2.6-11.6 0-.1 0-.3.2-.3h.2c.5.2.9.5 1.2.9 30.5 34.2 44.5 82.3 36 127.4-10.6 56.5-48.8 101.4-96 132.3-12.1 7.9-25.2 15.8-38.2 22.6-18.4 9.6-36.4 19.2-54 28.8-9.1 4.9-19.4 11.2-30.9 18.8-21.4 14.1-40.6 32.5-54.2 54.9-8 13.1-12.2 27-12.7 41.6-.4 10.2 1.9 20 6.2 29.2 1.1 2.2 2.5 4.2 4.4 5.9Z"
  />

  <!-- Body (secondary white) -->
  <path
    fill="#ffffff"
    d="M271 286.2c4-9.3 8.3-18.4 12.8-27.4 2.4-4.8 5.7-10.6 9.7-17.3 9.1-14.9 16.7-28.2 22.8-39.9 5.1-9.7 10.3-21.4 15.6-35.1 3.2-4.8 5.3-8 6.2-9.5 15.1-26.1 22.9-55.7 19-85.6-1.2-9.7-3.5-19.4-7-29.2-.5-1.5-1.2-2.9-2-4.2-1.3-2-1-2.2.9-.8 3.7 2.9 7.1 5.8 10.4 8.5 4.5 3.8 9 8.6 13.6 14.5 11.5 14.8 18.6 31.9 20.3 50.5 1.7 18.9-1.7 37.1-10.3 54.6-5.1 10.5-11.1 19.6-18 27.6-12.2 14.1-25.7 24.8-40.2 36.6-14.2 11.6-27.6 24.6-40.1 38.9-4.9 5.6-9.1 11.7-13.6 17.7ZM285.7 463.8l-.9 1.9c.2-.7.3-1.1.1-1.4-1-1.9-1.5-4-1.5-6.2.4-26.5 10.2-52.1 26.8-72.8 7.8-9.8 16.4-18.4 25.8-25.6 15.7-12.2 32.7-21.8 50.9-30.7 27.7-13.4 59.3-26.2 87.4-40.8 15-7.8 28.9-16.6 41.7-26.5 18.2-14 33.2-31.1 45.2-51.3 10.9-18.3 17.8-37.7 20.8-58.3.1-.8.3-.8.5 0 10.7 31 13.9 66.6 5.4 98.4-12.1 45.6-40.2 82.5-82.9 102.3-7.6 3.5-15.5 6.8-23.6 9.1-15 4.1-28.2 6.7-39.7 7.6-13.5 1.1-26.8 2.2-40 3.4-11.8 1-23.6 3.1-35.2 6.1-10.2 2.7-20.9 7.2-32.2 13.5-15.5 8.8-28.1 21-37.8 36.8-4.5 7.4-7.6 15.1-9.1 23.1-.1.7-.6 2.5-1.5 5.3-.6 2-.8 4.1-.5 6.1ZM260.2 337.7c5.9-15.2 10.1-25.2 12.6-30 9.1-17.5 21.5-33.4 37.3-47.5 11.4-10.3 22.9-19.2 35.1-28 11.1-8 21.1-16.4 29.9-25.1 9.2-9.2 16.4-18.9 21.4-29.1.6-1.3.8-1.2.5.2-.8 3.6-1.7 7.1-2.7 10.7-6.2 21.8-22.6 38.9-40 52.6-7.5 5.9-15.4 11.9-23.6 17.9-16 11.6-29.8 23.5-41.5 35.8-11.6 12.2-21 26.6-28.3 43 0 0 0 .1-.2 0h-.2c-.2-.2-.3-.3-.2-.5Z"
  />

  <!-- Head (primary blue) -->
  <path
    fill="#018efa"
    d="M2.9 229.9c14-6.9 28.8-12.5 44.4-16.8 18.7-5.2 36.7-8.5 53.9-9.9 5.7-.5 12.1-.8 19-1 4.2-.1 7.6-2.2 11.4-3.9 2-.9 3.9-1.9 5.8-3 5.9-3.5 11.4-6.4 16.4-8.7 11.3-5.3 23-7.4 35-6.2 24.1 2.4 42.6 19.9 50 42.7 1.8 5.5 3.2 11 4.2 16.7.1.6 0 1.2-.5 1.7-13.2 12.8-25.1 26.4-35.5 40.9-12.8 17.7-23.2 38.6-28.1 60.3-3.2 14.3-3.2 29 0 44.1 0 .2 0 .4-.3.4h-.2c-.2 0-.4-.2-.5-.4 0-.2-.2-.4-.3-.6-6.8-12-11.1-23.7-12.7-35.3-1.5-10.6-1.5-21.6 0-32.8 3.2-23.7 6.3-47-7.3-68.1-8.5-13.2-20.5-22.1-35.8-26.6-9.9-2.9-21.3-4.6-34.1-4.9-28.5-.7-56.6 3.3-84.3 12-.2 0-.3 0-.4-.2v-.2c-.1 0 0 0 0 0Zm182.4-15.5c0-4.7-3.8-8.4-8.4-8.4-4.7 0-8.4 3.8-8.4 8.4s3.8 8.4 8.4 8.4c4.7 0 8.4-3.8 8.4-8.4Z"
  />

  <!-- Eye -->
  <circle fill="#ffffff" cx="176.8" cy="214.4" r="8.4" />

  <!-- Beak/detail (secondary white) -->
  <path
    fill="#ffffff"
    d="M483 390.3c.9-.3 1.1-.1.4.6-3.1 3.8-6.6 7.4-10.6 10.7-15.4 12.7-36.5 17.1-55.6 13.8-8.7-1.5-17.9-3.5-27.5-6.1-14.4-3.8-28.7-4.8-42.9-2.9-1.3.2-1.4 0-.3-.8 2.9-1.8 5.8-3.5 8.7-5 12.7-7 25.9-10.4 40.5-11.1 10.6-.4 21.1.3 31.4 2.2 6.3 1.1 12.7 2.1 19.1 3 12.7 1.6 25 .2 36.7-4.4Z"
  />

  <!-- Tail/accent (red → #9be0fe) -->
  <path
    fill="#9be0fe"
    d="M335 438.7c-7.3-1.4-13.9-1.5-19.8-.3-7.7 1.6-15.3 5.9-22.9 12.9 8.3-14.5 20.4-23.6 36.2-27.2 57.5-13.1 92.9 40.6 103.1 89.1 11.9 57.1-6.2 115.7-49.3 155.4-16.8 15.5-36.3 27.1-58.1 31.9-1.2.3-1.3 0-.3-.6 1.9-1.2 3.9-2.2 5.7-3.6 36.5-27.1 57.4-67.1 61.5-112.5 3.7-40.6-2.7-81.5-24.1-116.6-6.4-10.6-15-19.3-25.8-26.4-2.2-1.4-4.4-2.1-6.4-2.1ZM298 548.4c2 27.3-10.4 52.8-29.5 72.2-.8.8-.9.7-.4-.3 8.8-17.9 11.5-38.5 9.8-58.7-3.1-35.9-24.4-66.2-54.8-84.7-1.4-.9-3.3-1.8-5.7-2.9-.2 0-.4-.2-.5-.4-.1-.4 0-.5.4-.4 3.6.8 7.4 1.7 11.2 2.6 19.7 4.8 36.3 14 49.8 27.6 6.4 6.5 11.6 15 15.7 25.6 2.1 5.5 3.4 12 4 19.4Z"
  />
</svg>
